<svg xmlns="http://www.w3.org/2000/svg" viewBox="0 0 64 64">
  <defs>
    <linearGradient id="gl" x1="0.2" y1="0" x2="0.8" y2="1">
      <stop offset="0%" stop-color="#E0E0E8"/>
      <stop offset="40%" stop-color="#C0C0CC"/>
      <stop offset="100%" stop-color="#888898"/>
    </linearGradient>
    <linearGradient id="gr" x1="0.8" y1="0" x2="0.2" y2="1">
      <stop offset="0%" stop-color="#A0A0B0"/>
      <stop offset="40%" stop-color="#606070"/>
      <stop offset="100%" stop-color="#303040"/>
    </linearGradient>
    <linearGradient id="gt" x1="0" y1="0" x2="1" y2="1">
      <stop offset="0%" stop-color="#D8D8E4"/>
      <stop offset="100%" stop-color="#9898A8"/>
    </linearGradient>
    <linearGradient id="gw" x1="0" y1="0.5" x2="1" y2="0.5">
      <stop offset="0%" stop-color="#B0B0BC"/>
      <stop offset="50%" stop-color="#787888"/>
      <stop offset="100%" stop-color="#404050"/>
    </linearGradient>
  </defs>
  <path d="M32 5 C28 14, 16 36, 10 52 L19 52 C22 44, 26 34, 32 19 Z" fill="url(#gl)"/>
  <path d="M32 5 C36 14, 48 36, 54 52 L45 52 C42 44, 38 34, 32 19 Z" fill="url(#gr)"/>
  <path d="M32 5 C30 10, 29 12, 28 16 L32 12 L36 16 C35 12, 34 10, 32 5 Z" fill="url(#gt)"/>
  <path d="M18 46 C24 38, 28 36, 32 37 C36 36, 40 38, 46 46 L42 50 C38 43, 36 41, 32 41 C28 41, 26 43, 22 50 Z" fill="url(#gw)"/>
</svg>
